<svg xmlns="http://www.w3.org/2000/svg" viewBox="0 0 512 512">
  <defs>
    <linearGradient id="bg" x1="0" y1="0" x2="1" y2="1">
      <stop offset="0%" stop-color="#1c1c28"/>
      <stop offset="100%" stop-color="#0a0a0f"/>
    </linearGradient>
    <linearGradient id="gx" x1="0" y1="0" x2="1" y2="1">
      <stop offset="0%" stop-color="#e8614a"/>
      <stop offset="100%" stop-color="#ff8c6b"/>
    </linearGradient>
    <linearGradient id="go" x1="0" y1="0" x2="1" y2="1">
      <stop offset="0%" stop-color="#4ab3e8"/>
      <stop offset="100%" stop-color="#7dd4f8"/>
    </linearGradient>
  </defs>
  <rect width="512" height="512" rx="112" ry="112" fill="url(#bg)"/>
  <line x1="170" y1="60"  x2="170" y2="452" stroke="#ffffff22" stroke-width="7" stroke-linecap="round"/>
  <line x1="342" y1="60"  x2="342" y2="452" stroke="#ffffff22" stroke-width="7" stroke-linecap="round"/>
  <line x1="60"  y1="170" x2="452" y2="170" stroke="#ffffff22" stroke-width="7" stroke-linecap="round"/>
  <line x1="60"  y1="342" x2="452" y2="342" stroke="#ffffff22" stroke-width="7" stroke-linecap="round"/>
  <!-- X top-left -->
  <line x1="78"  y1="78"  x2="150" y2="150" stroke="url(#gx)" stroke-width="24" stroke-linecap="round"/>
  <line x1="150" y1="78"  x2="78"  y2="150" stroke="url(#gx)" stroke-width="24" stroke-linecap="round"/>
  <!-- O center -->
  <circle cx="256" cy="256" r="54" fill="none" stroke="url(#go)" stroke-width="24"/>
  <!-- X bottom-right -->
  <line x1="362" y1="362" x2="434" y2="434" stroke="url(#gx)" stroke-width="24" stroke-linecap="round"/>
  <line x1="434" y1="362" x2="362" y2="434" stroke="url(#gx)" stroke-width="24" stroke-linecap="round"/>
  <!-- O top-right -->
  <circle cx="398" cy="114" r="44" fill="none" stroke="url(#go)" stroke-width="20"/>
  <!-- X bottom-left -->
  <line x1="78"  y1="362" x2="150" y2="434" stroke="url(#gx)" stroke-width="24" stroke-linecap="round"/>
  <line x1="150" y1="362" x2="78"  y2="434" stroke="url(#gx)" stroke-width="24" stroke-linecap="round"/>
</svg>
